PathFileType	4	(X/Y/Z)	\\147.46.242.158\로컬 디스크 (e)\MOCAP Data\Iguana Capture\iguana\Project 2\Capture day 7\Session 2\Take05.trc
DataRate	CameraRate	NumFrames	NumMarkers	Units	OrigDataRate	OrigDataStartFrame	OrigNumFrames
120.0	120.0	7	23	mm	120.0	91	17359
Frame#	Time	ana:head1			ana:head2			ana:bone1			ana:bone2			ana:bone3			ana:tail1			ana:tail2			ana:tail3			ana:tail4			ana:Rforefoot1			ana:Rforefoot2			ana:Rforefoot3			ana:Lforefoot1			ana:Lforefoot2			ana:Lforefoot3			ana:RhindLeg1			ana:RhindLeg2			ana:RhindLeg3			ana:RhindLeg4			ana:LhindLeg1			ana:LhindLeg2			ana:LhindLeg3			ana:LhindLeg4			
		X1	Y1	Z1	X2	Y2	Z2	X3	Y3	Z3	X4	Y4	Z4	X5	Y5	Z5	X6	Y6	Z6	X7	Y7	Z7	X8	Y8	Z8	X9	Y9	Z9	X10	Y10	Z10	X11	Y11	Z11	X12	Y12	Z12	X13	Y13	Z13	X14	Y14	Z14	X15	Y15	Z15	X16	Y16	Z16	X17	Y17	Z17	X18	Y18	Z18	X19	Y19	Z19	X20	Y20	Z20	X21	Y21	Z21	X22	Y22	Z22	X23	Y23	Z23	

7390	61.575	429.14450	-499.05234	50.17604	435.72354	-491.24670	50.19889	451.21487	-476.47104	40.61607	472.45010	-458.29575	34.39698	490.65500	-432.72632	28.32535	503.10654	-401.87692	20.77338	523.92676	-373.28012	12.81179	550.35840	-338.78046	5.86677	574.25391	-306.42062	5.37237	441.78540	-468.75174	22.75745	444.34341	-453.53015	18.67579	443.75708	-460.62418	4.15232	453.41779	-489.60828	28.24636	458.82730	-500.84851	27.30316	446.90805	-511.12396	20.10507	483.24249	-428.77621	22.60695	465.07581	-434.23972	26.18514	454.96432	-418.57803	16.34236	446.48657	-427.13892	16.88241	500.03183	-435.02521	21.85632	517.13678	-443.50406	20.21641	530.85449	-428.94202	10.29471	528.27100	-441.46738	7.92618	
7391	61.583	428.01501	-499.01193	50.87070	435.08792	-491.74338	50.60348	450.39426	-476.91586	40.95511	471.42316	-458.46603	34.47969	489.62387	-433.11484	29.58711	501.20609	-401.82214	20.11413	522.07111	-373.41495	12.03903	549.29761	-339.33295	6.09915	573.59778	-307.30627	5.07417	440.96277	-469.28860	23.24908	443.66885	-453.86108	19.09776	443.74567	-460.75885	4.22768	452.07959	-490.57047	28.20071	456.23053	-502.13394	24.84941	443.78107	-511.74014	17.70266	481.99380	-429.09811	22.09118	463.55762	-435.91034	25.55925	450.79944	-422.41705	14.28506	443.64545	-431.96570	14.88850	499.05963	-435.32663	22.67901	515.97028	-443.20010	20.03457	530.14746	-428.99695	9.83720	527.75610	-440.56903	5.76494	
7392	61.592	427.51376	-499.57492	51.27771	434.30609	-492.17130	50.87585	449.65067	-476.97614	41.10563	470.48370	-458.80008	34.75538	488.02203	-432.88995	28.59728	499.50714	-401.79623	19.91327	520.33551	-373.35651	11.83452	548.03339	-339.93268	6.11117	572.92822	-307.88797	5.00529	440.27225	-469.78174	23.61256	443.18896	-454.37421	19.52897	443.52600	-460.84195	4.39760	450.76474	-490.50665	27.10336	453.82053	-503.43018	24.18975	441.12317	-512.24408	16.42855	480.48273	-429.32880	21.76147	462.29062	-436.53552	24.24093	448.21484	-425.65439	11.89710	441.53574	-435.49170	12.21481	497.83640	-435.18695	22.66189	514.94379	-442.84720	20.39563	529.45837	-428.78027	10.21943	527.71582	-440.36136	5.79007	
7393	61.600	426.72217	-500.26065	51.52154	433.46942	-492.50674	50.73968	448.86520	-477.96121	41.15623	469.61942	-459.15668	35.01412	486.79169	-433.05634	28.10612	497.93692	-402.03226	19.64732	518.73047	-373.45126	11.42983	547.01660	-340.30154	5.95350	572.24634	-308.68298	5.29767	439.63269	-470.32977	23.82680	442.86829	-454.78055	19.76194	443.26343	-460.96622	4.58039	449.73056	-492.34375	27.63766	451.62067	-504.41339	23.17884	438.60059	-512.75464	14.68959	478.83066	-429.71600	21.80998	460.59845	-437.45175	23.45209	446.84995	-427.69415	8.59319	439.88757	-437.38809	8.54194	496.49994	-435.27643	22.76933	513.61450	-442.42538	20.06452	528.41699	-427.92325	10.03188	527.62433	-439.83939	6.30486	
7394	61.608	425.55142	-500.43463	50.88988	432.68979	-493.25229	50.78535	447.96384	-478.39108	41.20369	468.53900	-459.61868	35.07341	486.17261	-432.90027	28.66331	496.45230	-402.17206	19.40171	517.30225	-373.62610	11.36225	545.80115	-340.65860	5.65225	571.52173	-309.57462	5.23849	438.80576	-470.74939	23.38920	442.53674	-454.90955	19.32246	443.38968	-460.99335	4.17166	448.67859	-493.15515	27.39849	449.74237	-504.97433	21.82593	436.64047	-513.03851	13.22386	477.35867	-429.82968	21.25000	458.84399	-437.57230	22.32008	445.93774	-428.87796	6.51306	438.52094	-437.60632	4.72891	494.99628	-434.86343	21.57864	512.65839	-442.10263	20.93916	527.59698	-427.49490	10.18584	526.84375	-438.85281	4.78143	
7395	61.617	425.50919	-501.37259	51.42353	432.11621	-493.99658	51.09290	447.05725	-478.90372	41.30361	467.37903	-459.56100	34.87110	485.00748	-433.21497	28.41377	495.19638	-402.32471	19.25811	515.93030	-373.69852	10.96482	544.75916	-341.07126	5.81051	570.85004	-310.24155	5.33952	440.35336	-470.39014	21.29132	441.54749	-456.33240	20.04610	443.01364	-461.21399	4.58231	447.60345	-493.79376	26.87949	448.05182	-505.50977	21.07837	435.15823	-513.08276	11.22666	476.11774	-429.90851	21.26905	457.83990	-437.00330	20.95488	446.07047	-428.31552	4.37201	438.46530	-437.40454	4.06048	494.12872	-435.46301	22.67925	511.71344	-442.04535	20.98556	527.06836	-427.67493	10.38381	526.69849	-438.75296	4.69494	
7396	61.625	424.76093	-501.96988	51.56374	431.28400	-494.38693	51.15550	446.18927	-479.46091	41.19046	466.42227	-460.09064	35.15175	483.59509	-433.14008	27.12262	494.11694	-402.62900	19.42119	514.48621	-373.91772	10.76757	543.53296	-341.15112	5.58341	570.26971	-310.97498	5.42089	437.29611	-471.68826	23.80414	441.38129	-456.46225	19.70564	442.81830	-461.26981	4.80393	446.63943	-494.40851	26.71357	446.45755	-505.94159	20.23187	433.66809	-513.55432	9.90778	474.93716	-430.34229	21.51481	456.17407	-436.89136	20.71408	446.04025	-427.68469	3.30350	438.38956	-436.98502	3.79801	492.88184	-435.64178	22.63935	510.56503	-442.01477	20.98021	526.52502	-427.72318	10.52821	527.03491	-439.95337	6.77449	
